<?xml version="1.0" encoding="utf-8"?>
<!-- Generator: Adobe Illustrator 24.0.1, SVG Export Plug-In . SVG Version: 6.00 Build 0)  -->
<svg version="1.0" id="Layer_1" xmlns="http://www.w3.org/2000/svg" xmlns:xlink="http://www.w3.org/1999/xlink" x="0px" y="0px"
	 width="700" height="72" viewBox="0 0 600 72" enable-background="new 0 0 600 72" xml:space="preserve">
<g>
	<g>
		<g>
			<path fill="#E9E9EA" d="M62.1,35.3H48.8v-4.6c0-0.6,0.5-1.1,1.1-1.1h12.2c0.6,0,1.1,0.5,1.1,1.1v3.4
				C63.2,34.8,62.8,35.3,62.1,35.3z"/>
		</g>
		<g>
			<path fill="#E9E9EA" d="M62.1,44H49.9c-0.6,0-1.1-0.5-1.1-1.1v-4.6h13.3c0.6,0,1.1,0.5,1.1,1.1v3.4C63.2,43.5,62.8,44,62.1,44z"
				/>
		</g>
		<g>
			<path fill="#E9E9EA" d="M54.6,29.5V44h-4.6c-0.6,0-1.1-0.5-1.1-1.1V30.6c0-0.6,0.5-1.1,1.1-1.1H54.6z"/>
		</g>
		<g>
			<path fill="#E9E9EA" d="M53.4,52.7H41.2c-0.6,0-1.1-0.5-1.1-1.1V47h13.4c0.6,0,1.1,0.5,1.1,1.1v3.4C54.6,52.2,54,52.7,53.4,52.7z
				"/>
		</g>
		<g>
			<path fill="#E9E9EA" d="M45.8,39.3v13.4h-4.6c-0.6,0-1.1-0.5-1.1-1.1V39.4c0-0.6,0.5-1.1,1.1-1.1h3.5
				C45.3,38.2,45.8,38.7,45.8,39.3z"/>
		</g>
		<g>
			<path fill="#E9E9EA" d="M72,26.5H58.6c-0.6,0-1.1-0.5-1.1-1.1V22c0-0.6,0.5-1.1,1.1-1.1h12.2c0.6,0,1.1,0.5,1.1,1.1L72,26.5
				L72,26.5z"/>
		</g>
		<g>
			<path fill="#E9E9EA" d="M72,21.9v12.2c0,0.6-0.5,1.1-1.1,1.1h-3.5c-0.6,0-1.1-0.5-1.1-1.1V20.7h4.6C71.5,20.7,72,21.3,72,21.9z"
				/>
		</g>
	</g>
	<g>
		<path fill="#FFFFFF" d="M121.5,57.5c-0.7,0-1.3-0.3-1.9-0.9c-6-6-12.7-10-20.1-12l0.2,5.4l0.1,5.4c0,0.8-0.3,1.5-0.8,2
			s-1.2,0.8-2,0.8s-1.4-0.3-2-0.8s-0.8-1.2-0.8-2c0-1.4-0.1-3.6-0.2-6.4c-0.1-2.9-0.2-5-0.2-6.4c0-1.7,0.2-4.2,0.5-7.5
			c0.4-3.3,0.5-5.8,0.5-7.5c0-0.9-0.1-2.3-0.3-4.1c-0.2-1.8-0.3-3.2-0.3-4.1c0-1,0.3-2,0.9-2.7c0.7-1,1.6-1.4,2.9-1.3l6.6,0.5
			c2.5,0.3,4.6,0.9,6.3,1.8c7.4,3.9,11.1,8.7,11.1,14.4c0,2.8-1.3,5.2-3.8,7.4c-2,1.7-4.5,3-7.6,3.9c5.7,3,9.9,6.3,12.7,9.6
			c0.5,0.6,0.7,1.2,0.7,1.9c0,0.8-0.3,1.4-0.8,2C122.9,57.2,122.2,57.5,121.5,57.5z M104.1,21.3l-4-0.3l0.3,3.3
			c0.1,1.3,0.2,2.5,0.2,3.3c0,1.5-0.1,3.3-0.4,5.4l-0.6,5.4c0.3,0,0.7,0,1.2,0s0.9,0,1.2,0c4.6,0,8.1-0.6,10.4-1.9
			c1-0.6,2-1.3,2.8-2.2c1-1,1.4-1.9,1.4-2.6c0-2.5-1.4-4.9-4.3-7.1C109.7,22.8,107,21.6,104.1,21.3z"/>
		<path fill="#FFFFFF" d="M142.5,58.4c-4.1,0-7.5-1-10-3.1c-2.8-2.3-4.2-5.5-4.2-9.6c0-4.7,1.1-8.7,3.4-11.9c2.5-3.5,5.8-5.2,10-5.2
			c3,0,5.5,0.5,7.4,1.5c2.4,1.3,3.5,3.2,3.5,5.8c0,1.8-1,3.5-3.1,5c-0.9,0.7-2.8,1.7-5.8,3.1l-10.4,4.9c1,1.5,2.3,2.7,3.8,3.4
			c1.5,0.8,3.3,1.1,5.3,1.1c1.3,0,2.7-0.2,4.4-0.7c2.2-0.6,3.5-1.4,4.2-2.4c0.6-1,1.3-1.5,2-1.5c0.6,0,1.2,0.2,1.7,0.7
			s0.8,1,0.8,1.7c0,2-1.6,3.8-4.9,5.2C147.8,57.8,145.1,58.4,142.5,58.4z M141.7,33.5c-2.2,0-4.1,0.9-5.6,2.6s-2.6,4.3-3.3,7.8
			l8.4-4c3.3-1.6,5.7-3,7.1-4.2C146.7,34.3,144.5,33.5,141.7,33.5z"/>
		<path fill="#FFFFFF" d="M181.7,59c-0.3,0-1-0.4-1.9-1.2c-0.8-0.7-1.4-1.4-1.8-2c-1.8,0.9-3.3,1.7-4.6,2.1
			c-1.3,0.5-2.4,0.7-3.3,0.7c-4.3,0-7.4-1.2-9.3-3.6c-1.8-2.3-2.8-5.7-2.8-10.4c0-4.4,1.5-8.2,4.6-11.3c3-3.1,6.7-4.7,10.9-4.7
			c1.6,0,3.4,0.4,5.3,1.2c2.5,1,3.7,2.3,3.7,3.7c0,0.5-0.2,0.9-0.5,1.3c-0.2,0.7-0.3,1.8-0.4,3.4c-0.1,1.6-0.2,3.6-0.2,6.1
			c0,2.3,0.1,4,0.5,5.4c0.2,0.8,0.8,2.4,1.7,4.8c0.1,0.3,0.3,0.8,0.6,1.4l0.2,0.5c0,0.7-0.3,1.3-0.8,1.8C183,58.7,182.4,59,181.7,59
			z M176,40c0-0.8,0-1.6,0.2-2.6c0.1-0.9,0.3-1.9,0.5-2.9c-0.7-0.3-1.3-0.6-1.7-0.8c-0.5-0.2-0.9-0.2-1.2-0.2
			c-2.8,0-5.3,1.2-7.3,3.5c-2.1,2.3-3.1,5-3.1,8s0.5,5.2,1.6,6.7s2.6,2.2,4.8,2.2c1.8,0,3.2-0.3,4.5-1c0.7-0.3,1.6-1,2.8-2.1
			C176.3,46,176,42.4,176,40z"/>
		<path fill="#FFFFFF" d="M196,35.7l-0.4,13.6c0,1.4-0.1,3.6-0.2,6.3c-0.2,1.8-1.1,2.7-2.7,2.7c-1.8,0-2.7-0.9-2.7-2.8
			c0-2.2,0.1-5.5,0.3-9.9s0.3-7.7,0.3-9.9c0-2.9,0-6.2,0.1-9.9s0.1-7,0.1-9.9c0-1.8,0.9-2.7,2.7-2.7s2.7,0.9,2.7,2.7
			c0,2.9,0,6.2-0.1,9.9C196,29.5,196,32.8,196,35.7z"/>
		<path fill="#FFFFFF" d="M210.8,44.8c0,1.1,0,2.7,0.1,4.9s0.1,3.8,0.1,4.9c0,0.8-0.2,1.5-0.7,2s-1.1,0.8-1.9,0.8
			c-0.8,0-1.4-0.3-1.9-0.8s-0.8-1.2-0.8-2c0-1.1,0-2.7-0.1-4.9s-0.1-3.8-0.1-4.9c0-1.7,0.1-3.9,0.3-6.4c0.2-2.6,0.3-4.7,0.3-6.4
			c0-0.8,0.3-1.5,0.8-2s1.1-0.8,1.9-0.8c0.8,0,1.4,0.3,1.9,0.8s0.8,1.2,0.8,2c0,1.7-0.1,3.9-0.3,6.4C210.9,40.9,210.8,43,210.8,44.8
			z M209.6,22.6c-0.9,0-1.6-0.3-2.3-0.9c-0.6-0.6-1-1.4-1-2.2s0.3-1.6,1-2.2c0.6-0.6,1.4-0.9,2.3-0.9s1.6,0.3,2.3,0.9
			c0.6,0.6,0.9,1.4,0.9,2.2s-0.3,1.6-0.9,2.2C211.2,22.3,210.5,22.6,209.6,22.6z"/>
		<path fill="#FFFFFF" d="M238.5,36.1c-1,0-1.7-0.3-2.1-1c-0.3-0.5-0.5-1.5-0.7-3c-1.4,0.3-3.5,1-6.3,1.9c-2.9,1.2-4.4,2.6-4.4,4.3
			c0.5,0.2,1.1,0.3,1.6,0.4c4.2,0.7,7.3,1.8,9.4,3.1c3,1.9,4.5,4.7,4.5,8.3c0,3-1.3,5.2-3.9,6.7c-2.1,1.2-4.8,1.9-8.1,1.9
			c-2.4,0-4.7-0.4-6.8-1.2c-2.8-1-4.2-2.4-4.2-4.3c0-0.7,0.3-1.4,0.9-1.9s1.2-0.8,2-0.8c0.6,0,1.3,0.4,2.2,1.3c0.4,0.4,1.4,0.8,3,1
			c1.2,0.2,2.3,0.3,3.1,0.3c1.5,0,2.9-0.2,4-0.5c1.7-0.5,2.5-1.4,2.5-2.5c0-2.5-1.7-4.2-5.2-5l-2.8-0.6c-2.4-0.5-4.1-1.1-5.2-1.9
			c-1.5-1-2.2-2.6-2.2-4.6c0-3.8,1.8-6.5,5.4-8.1c1.1-0.5,2.8-1.1,5.2-1.8s4.1-1.3,5.2-1.7c0.7-0.3,1.6-0.5,2.4-0.5
			c0.8,0,1.4,0.3,1.9,0.8s0.8,1.2,0.8,2c0,0.5,0.1,1.3,0.3,2.3s0.3,1.8,0.3,2.3c0,0.8-0.3,1.5-0.8,2
			C239.9,35.9,239.3,36.1,238.5,36.1z"/>
		<path fill="#FFFFFF" d="M265.6,33.9c-0.4,0-0.8,0-1.4-0.1c-0.5,0-1-0.1-1.4-0.1s-1.7,0.1-3.7,0.4l0.5,16.2v1.2v1.4
			c0.1,4-0.9,6-2.9,6c-0.7,0-1.4-0.2-1.9-0.7s-0.8-1.1-0.8-1.8s0-1.7,0.1-3.1c0.1-1.4,0.1-2.4,0.1-3.1l-0.5-16
			c-1.3-0.1-3.4-0.2-6.1-0.5c-1.6-0.2-2.4-1.1-2.4-2.7c0-0.8,0.2-1.5,0.7-2s1.1-0.8,1.9-0.8l5.7,0.5c0-0.9,0-2.2-0.1-3.7
			s-0.1-2.7-0.1-3.4c0-0.8,0.3-1.4,0.8-1.9s1.2-0.8,1.9-0.8c1.6,0,2.6,1.3,2.9,4c0.1,0.7,0.1,1.5,0.1,2.4l-0.1,1.6v1.7
			c2.3-0.3,3.6-0.4,3.9-0.4c1.9,0,3.1,0.1,3.7,0.3c1.1,0.4,1.7,1.2,1.7,2.6c0,0.8-0.3,1.5-0.8,2C267,33.6,266.4,33.9,265.6,33.9z"/>
		<path fill="#FFFFFF" d="M280.2,44.8c0,1.1,0,2.7,0.1,4.9s0.1,3.8,0.1,4.9c0,0.8-0.2,1.5-0.7,2s-1.1,0.8-1.9,0.8s-1.4-0.3-1.9-0.8
			s-0.8-1.2-0.8-2c0-1.1,0-2.7-0.1-4.9s-0.1-3.8-0.1-4.9c0-1.7,0.1-3.9,0.3-6.4c0.2-2.6,0.3-4.7,0.3-6.4c0-0.8,0.3-1.5,0.8-2
			s1.1-0.8,1.9-0.8s1.4,0.3,1.9,0.8s0.8,1.2,0.8,2c0,1.7-0.1,3.9-0.3,6.4C280.2,40.9,280.2,43,280.2,44.8z M278.9,22.6
			c-0.9,0-1.6-0.3-2.3-0.9c-0.6-0.6-1-1.4-1-2.2s0.3-1.6,1-2.2c0.6-0.6,1.4-0.9,2.3-0.9s1.6,0.3,2.3,0.9c0.6,0.6,0.9,1.4,0.9,2.2
			s-0.3,1.6-0.9,2.2C280.6,22.3,279.8,22.6,278.9,22.6z"/>
		<path fill="#FFFFFF" d="M301.8,58.9c-3.7,0-6.9-1.1-9.4-3.4c-2.6-2.4-3.9-5.5-3.9-9.4c0-3.7,1.2-7.5,3.7-11.5
			c2.7-4.4,5.8-6.6,9.2-6.6c1.8,0,3.8,0.4,6,1.3c2.8,1.1,4.2,2.4,4.2,3.9c0,0.7-0.2,1.3-0.7,1.8s-1,0.8-1.7,0.8
			c-0.5,0-1-0.2-1.4-0.5s-0.8-0.6-1.1-0.9c-1.1-0.9-2.8-1.3-5.3-1.3c-1.9,0-3.7,1.7-5.5,5c-1.7,3-2.5,5.7-2.5,7.9
			c0,2.4,0.8,4.3,2.5,5.7c1.5,1.3,3.5,1.9,5.9,1.9c1.1,0,2.3-0.3,3.5-0.9l3.2-1.7c0.5-0.3,0.9-0.4,1.2-0.4c0.7,0,1.3,0.3,1.8,0.8
			s0.7,1.2,0.7,1.8c0,1.3-1.4,2.6-4.2,3.9C305.4,58.4,303.4,58.9,301.8,58.9z"/>
		<path fill="#FFFFFF" d="M360.1,33c-0.2,2.7-0.3,5.4-0.3,8c0,6.1,0.3,10.7,0.8,13.8c0,0.3,0.1,0.5,0.1,0.6c0,0.7-0.3,1.3-0.8,1.8
			s-1.1,0.7-1.8,0.7c-1.1,0-2-0.8-2.5-2.5c-1.3,1-2.7,1.7-4.1,2.2s-2.9,0.7-4.4,0.7c-3.8,0-6.9-1.3-9.4-3.8
			c-2.6-2.6-3.8-5.9-3.8-9.9c0-4.9,1.3-8.8,3.9-11.7s5.9-4.4,10-4.4c2.1,0,3.7,0.3,4.9,1l2.6,1.9c0.3-7.7,0.6-12.8,0.9-15.5
			c0.2-1.6,1.1-2.4,2.5-2.4c1.7,0,2.5,0.9,2.5,2.7C361.2,18.8,360.8,24.4,360.1,33z M347.9,33.7c-3.1,0-5.4,0.9-6.9,2.7
			s-2.3,4.5-2.3,8.2c0,2.4,0.8,4.4,2.5,6.1s3.6,2.5,5.9,2.5c1.5,0,2.8-0.3,3.9-0.8c0.6-0.3,1.6-1.1,3-2.3c0.3-0.2,0.5-0.5,0.8-0.8
			l-0.1-4.7v-3.2l0.1-3.2c-0.7-1.5-1.6-2.6-2.8-3.3S349.5,33.7,347.9,33.7z"/>
		<path fill="#FFFFFF" d="M389.1,37c-0.1,2.3-1,3.4-2.7,3.4c-1.6,0-2.4-0.9-2.4-2.7c0-0.3,0-1-0.1-1.9l-0.1-2.3
			c-2.9,0.3-5.2,1.2-6.9,2.4c-1.6,1.2-3,3-4,5.4l0.1,15c0,1.8-0.9,2.8-2.7,2.8c-1.6,0-2.4-0.9-2.4-2.8V37.1c0-0.6,0-1.5,0.1-2.7
			c0-1.2,0.1-2.1,0.1-2.7c0-1.8,0.8-2.8,2.4-2.8c1.8,0,2.7,1.5,2.7,4.5c3.5-3.4,7.4-5.1,11.6-5.1c1.5,0,2.6,0.6,3.3,1.7
			c0.7,1.1,1.1,2.8,1.1,5C389.1,36,389.1,36.6,389.1,37z"/>
		<path fill="#FFFFFF" d="M407.5,58.4c-4.1,0-7.5-1-10-3.1c-2.8-2.3-4.2-5.5-4.2-9.6c0-4.7,1.1-8.7,3.4-11.9c2.5-3.5,5.8-5.2,10-5.2
			c3,0,5.5,0.5,7.4,1.5c2.4,1.3,3.5,3.2,3.5,5.8c0,1.8-1,3.5-3.1,5c-0.9,0.7-2.8,1.7-5.8,3.1l-10.4,4.9c1,1.5,2.3,2.7,3.8,3.4
			c1.5,0.8,3.3,1.1,5.3,1.1c1.3,0,2.7-0.2,4.4-0.7c2.2-0.6,3.5-1.4,4.2-2.4c0.6-1,1.3-1.5,2-1.5c0.6,0,1.2,0.2,1.7,0.7
			s0.8,1,0.8,1.7c0,2-1.6,3.8-4.9,5.2C412.8,57.8,410.1,58.4,407.5,58.4z M406.7,33.5c-2.2,0-4.1,0.9-5.6,2.6s-2.6,4.3-3.3,7.8
			l8.4-4c3.3-1.6,5.7-3,7.1-4.2C411.8,34.3,409.6,33.5,406.7,33.5z"/>
		<path fill="#FFFFFF" d="M446.7,59c-0.3,0-1-0.4-1.9-1.2c-0.8-0.7-1.4-1.4-1.8-2c-1.8,0.9-3.3,1.7-4.6,2.1
			c-1.3,0.5-2.4,0.7-3.3,0.7c-4.3,0-7.4-1.2-9.3-3.6c-1.8-2.3-2.8-5.7-2.8-10.4c0-4.4,1.5-8.2,4.6-11.3c3-3.1,6.7-4.7,10.9-4.7
			c1.6,0,3.4,0.4,5.3,1.2c2.5,1,3.7,2.3,3.7,3.7c0,0.5-0.2,0.9-0.5,1.3c-0.2,0.7-0.3,1.8-0.4,3.4c-0.1,1.6-0.2,3.6-0.2,6.1
			c0,2.3,0.1,4,0.5,5.4c0.2,0.8,0.8,2.4,1.7,4.8c0.1,0.3,0.3,0.8,0.6,1.4l0.2,0.5c0,0.7-0.3,1.3-0.8,1.8C448,58.7,447.4,59,446.7,59
			z M441,40c0-0.8,0-1.6,0.2-2.6c0.1-0.9,0.2-1.9,0.5-2.9c-0.7-0.3-1.3-0.6-1.7-0.8c-0.5-0.2-0.9-0.2-1.2-0.2
			c-2.8,0-5.3,1.2-7.3,3.5c-2.1,2.3-3.1,5-3.1,8s0.5,5.2,1.6,6.7s2.6,2.2,4.8,2.2c1.8,0,3.2-0.3,4.5-1c0.7-0.3,1.6-1,2.8-2.1
			C441.3,46,441,42.4,441,40z"/>
		<path fill="#FFFFFF" d="M488.8,59.4c-1.5,0-2.4-0.8-2.6-2.4c-0.3-2-0.7-4.8-1-8.5l-0.9-8.5c-0.2-1.3-0.5-2.5-0.9-3.7
			c-0.6-1.6-1.3-2.5-2-2.5s-1.9,0.6-3.8,1.7c-1.8,1.1-2.9,1.9-3.4,2.5c0,1.7,0,3.4,0.1,5.1l0.8,7.3c0.3,2.9,0.5,5.3,0.5,7.1
			c0,0.8-0.3,1.5-0.8,2s-1.1,0.8-1.9,0.8s-1.4-0.3-1.9-0.8s-0.8-1.2-0.8-2c0-2.2-0.2-5.5-0.7-9.8c-0.4-4.3-0.7-7.6-0.7-9.8
			c0-1.9-0.3-3.4-0.8-4.5c-1.3,0.6-2.6,1.5-3.9,2.8l-3.2,3.6c-0.3,0.4-0.8,1-1.4,1.7c0,1.1-0.1,2.7-0.3,4.8
			c-0.2,2.1-0.3,3.7-0.3,4.7c0,0.5,0.1,1.3,0.3,2.3c0.2,1,0.3,1.7,0.3,2.1c0,0.7-0.3,1.4-0.8,1.9c-0.6,0.5-1.2,0.8-2,0.8
			c-2.1,0-3.1-2.3-3.1-7c0-1.1,0.1-2.7,0.3-4.9c0.2-2.2,0.3-3.8,0.3-4.9c0-1-0.1-2.4-0.3-4.3c-0.2-1.9-0.3-3.4-0.3-4.4
			c0-4.1,0.9-6.2,2.8-6.2c0.7,0,1.4,0.3,2,0.9s0.9,1.3,0.9,2c0,0.3,0,0.9-0.1,1.6s-0.1,1.3-0.1,1.7l0.1,2.9c0.9-2,2.3-3.7,4.2-5.3
			c1.8-1.6,3.4-2.4,4.7-2.4c2.9,0,4.8,1.4,5.9,4.3c1-1.3,2.2-2.3,3.6-3s3-1,4.8-1c3,0,5.1,1.6,6.2,4.9c0.2,0.7,0.6,3.2,1.1,7.7
			c0.5,3.1,1.2,8.4,2,15.7c0.1,0.7-0.2,1.3-0.7,1.9C490.2,59.2,489.5,59.4,488.8,59.4z"/>
		<path fill="#FFFFFF" d="M510.3,58.4c-4.1,0-7.5-1-10-3.1c-2.8-2.3-4.2-5.5-4.2-9.6c0-4.7,1.1-8.7,3.4-11.9c2.5-3.5,5.8-5.2,10-5.2
			c3,0,5.5,0.5,7.4,1.5c2.4,1.3,3.5,3.2,3.5,5.8c0,1.8-1,3.5-3.1,5c-0.9,0.7-2.8,1.7-5.8,3.1l-10.4,4.9c1,1.5,2.3,2.7,3.8,3.4
			c1.5,0.8,3.3,1.1,5.3,1.1c1.3,0,2.7-0.2,4.4-0.7c2.2-0.6,3.5-1.4,4.2-2.4c0.6-1,1.3-1.5,2-1.5c0.6,0,1.2,0.2,1.7,0.7
			s0.8,1,0.8,1.7c0,2-1.6,3.8-4.9,5.2C515.7,57.8,513,58.4,510.3,58.4z M509.6,33.5c-2.2,0-4.1,0.9-5.6,2.6s-2.6,4.3-3.3,7.8l8.4-4
			c3.3-1.6,5.7-3,7.1-4.2C514.6,34.3,512.4,33.5,509.6,33.5z"/>
		<path fill="#FFFFFF" d="M555.2,57.5c-0.7,0-1.3-0.3-1.9-0.9c-6-6-12.7-10-20.1-12l0.2,5.4l0.1,5.4c0,0.8-0.3,1.5-0.8,2
			s-1.2,0.8-2,0.8s-1.4-0.3-2-0.8s-0.8-1.2-0.8-2c0-1.4-0.1-3.6-0.2-6.4c-0.1-2.9-0.2-5-0.2-6.4c0-1.7,0.2-4.2,0.5-7.5
			c0.4-3.3,0.5-5.8,0.5-7.5c0-0.9-0.1-2.3-0.3-4.1c-0.2-1.8-0.3-3.2-0.3-4.1c0-1,0.3-2,0.9-2.7c0.7-1,1.6-1.4,2.9-1.3l6.6,0.5
			c2.5,0.3,4.6,0.9,6.3,1.8c7.4,3.9,11.1,8.7,11.1,14.4c0,2.8-1.3,5.2-3.8,7.4c-2,1.7-4.5,3-7.6,3.9c5.7,3,9.9,6.3,12.7,9.6
			c0.5,0.6,0.7,1.2,0.7,1.9c0,0.8-0.3,1.4-0.8,2C556.6,57.2,556,57.5,555.2,57.5z M537.8,21.3l-4-0.3l0.3,3.3
			c0.1,1.3,0.2,2.5,0.2,3.3c0,1.5-0.1,3.3-0.4,5.4l-0.6,5.4c0.3,0,0.7,0,1.2,0s0.9,0,1.2,0c4.6,0,8.1-0.6,10.4-1.9
			c1-0.6,2-1.3,2.8-2.2c1-1,1.4-1.9,1.4-2.6c0-2.5-1.4-4.9-4.3-7.1C543.5,22.8,540.7,21.6,537.8,21.3z"/>
	</g>
</g>
</svg>
